<svg fill="currentColor" width="32" height="32" viewBox="0 0 24 24" xmlns="http://www.w3.org/2000/svg" role="img" aria-label="Facebook">
  <path d="M23 12C23 5.92487 18.0751 0.999996 12 0.999996C5.92488 0.999996 1 5.92487 1 12C1 17.1588 4.55146 21.4874 9.34266 22.6761V15.3614H7.07438V12H9.34266V10.5516C9.34266 6.80751 11.037 5.07215 14.7128 5.07215C15.4096 5.07215 16.6121 5.20877 17.104 5.34544V8.39261C16.8444 8.36529 16.3935 8.3516 15.8332 8.3516C14.0295 8.3516 13.3326 9.03484 13.3326 10.8112V12H16.9256L16.3084 15.3614H13.3326V22.9194C18.7792 22.2616 23 17.624 23 12Z"/>
</svg>
