<svg xmlns="http://www.w3.org/2000/svg" viewBox="-55 341.5 494.5 88" fill="#1a1a1a">
<g transform="translate(0.0151177, 208.993644)">
  <path d="M-46.6,216.7h-3.1l35.1-82.4l34.9,82.4H8.1l-12-28.3h-30.8L-46.6,216.7z M-19.2,151.9l-14.4,33.9h28.5L-19.2,151.9z"/>
</g>
<g transform="translate(60.646538, 208.993644)">
  <path d="M-13.9,216.7h-11.3v-80.7H5.5c7.7,0,13.8,1,18.2,2.9c4.5,1.9,7.7,4.5,9.6,7.7c2,3.2,2.9,6.7,2.9,10.6c0,3.4-0.8,6.6-2.4,9.6c-1.6,3-4.2,5.5-7.8,7.5c-3.6,2-8.5,3.2-14.5,3.7l26.3,38.6H24.5l-25.9-38.1h-12.6V216.7z M-13.9,138.7v37.1H3.5c7.5,0,12.9-1.8,16.1-5.3c3.2-3.5,4.8-8,4.8-13.4c0-5.4-1.6-9.8-4.8-13.3c-3.2-3.5-8.6-5.2-16.1-5.2H-13.9z"/>
</g>
<g transform="translate(121.969902, 208.993644)">
  <path d="M37.3,217.8c-5.8,0-11.4-0.9-16.6-2.8c-5.2-1.9-9.8-4.6-13.8-8.2c-4-3.6-7.1-7.9-9.4-13.1c-2.3-5.2-3.4-11-3.4-17.5c0-6.5,1.1-12.4,3.4-17.5c2.3-5.1,5.4-9.4,9.4-13c4-3.6,8.6-6.3,13.8-8.1c5.2-1.8,10.8-2.8,16.6-2.8c5.9,0,11.4,0.9,16.6,2.8c5.2,1.8,9.7,4.6,13.6,8.1c3.9,3.6,7,7.9,9.2,13c2.2,5.1,3.4,10.9,3.4,17.5c0,6.5-1.1,12.4-3.4,17.5c-2.2,5.2-5.3,9.5-9.2,13.1c-3.9,3.6-8.5,6.3-13.6,8.2C48.8,216.9,43.2,217.8,37.3,217.8z M37.4,215.2c6.1,0,11.5-1.5,16.2-4.5c4.7-3,8.5-7.5,11.2-13.3c2.7-5.8,4.1-12.9,4.1-21.2c0-8.3-1.4-15.3-4.1-21.1c-2.7-5.8-6.5-10.1-11.2-13.1c-4.7-3-10.1-4.5-16.2-4.5c-6,0-11.4,1.5-16.2,4.5c-4.8,3-8.5,7.4-11.3,13.1c-2.8,5.8-4.1,12.8-4.1,21.1c0,8.3,1.4,15.4,4.1,21.2c2.8,5.8,6.5,10.2,11.3,13.3C26.1,213.7,31.4,215.2,37.4,215.2z"/>
</g>
<g transform="translate(199.207931, 208.993644)">
  <path d="M81.4,216.7H21l45.9-78.1H21.1v-2.6h60.3l-46,78.1h46V216.7z"/>
</g>
<g transform="translate(258.88793, 208.993644)">
  <path d="M95.7,216.7H40.9v-80.7h54.8v2.8H52.2v34.8h34.3v2.8H52.2v37.6h43.5V216.7z"/>
</g>
<g transform="translate(314.329779, 208.993644)">
  <path d="M121,135.9v82.4l-58.8-73.4v71.7h-2.9v-80.7h10.4l48.5,61.2v-61.2H121z"/>
</g>
</svg>
