<svg fill="currentColor" width="32" height="32" viewBox="0 0 24 24" xmlns="http://www.w3.org/2000/svg" role="img" aria-label="Pinterest">
  <path d="M1 12C1 16.6961 3.94342 20.7056 8.08586 22.2832C7.985 21.4243 7.8778 20.008 8.1088 19.0143C8.30764 18.16 9.393 13.5712 9.393 13.5712C9.393 13.5712 9.0658 12.9157 9.0658 11.945C9.0658 10.4233 9.94757 9.28667 11.0467 9.28667C11.9817 9.28667 12.4327 9.98794 12.4327 10.8285C12.4327 11.7681 11.8341 13.1724 11.5252 14.475C11.2676 15.5649 12.0724 16.4541 13.1468 16.4541C15.0928 16.4541 16.5898 14.4017 16.5898 11.439C16.5898 8.81642 14.7051 6.984 12.0147 6.984C8.89986 6.984 7.07107 9.32058 7.07107 11.736C7.07107 12.6774 7.43314 13.6858 7.886 14.2348C7.92458 14.2764 7.95192 14.3271 7.9652 14.3821C7.97857 14.4371 7.97747 14.4947 7.96206 14.5493C7.87864 14.8958 7.6935 15.6392 7.6578 15.7913C7.60914 15.9912 7.49914 16.0343 7.29107 15.9371C5.92343 15.3009 5.06908 13.3017 5.06908 11.6957C5.06908 8.24075 7.578 5.06908 12.3034 5.06908C16.1021 5.06908 19.0547 7.776 19.0547 11.3932C19.0547 15.1671 16.6759 18.2049 13.3722 18.2049C12.2622 18.2049 11.2199 17.6274 10.8624 16.9463C10.8624 16.9463 10.3133 19.0382 10.1804 19.5497C9.92194 20.5433 9.20506 21.801 8.7605 22.5151C9.78536 22.8304 10.8725 23 12 23C18.0748 23 23 18.0748 23 12C23 5.92525 18.0748 1 12 1C5.9252 1 1 5.92525 1 12Z"/>
</svg>
